<svg xmlns="http://www.w3.org/2000/svg" width="204.91" height="80.68" viewBox="0 0 204.91 80.68"><path d="M0,0V64c22.3,0,37.53,4.3,52.27,8.45,14.35,4,29.19,8.23,50.19,8.23,19.6,0,33.13-3.85,47.45-7.92,15.14-4.31,30.8-8.76,55-8.76V0Z" fill="#011e41"/><path d="M57.42,60.37H55.6v-.88h1.82Z" fill="#fff"/><path d="M63.67,56.54H65.4a5.19,5.19,0,0,1,1.2.14,2.69,2.69,0,0,1,1,.46,2.13,2.13,0,0,1,.67.81,2.68,2.68,0,0,1,.25,1.22,2.49,2.49,0,0,1-.24,1.12,2.45,2.45,0,0,1-.65.81,2.74,2.74,0,0,1-.94.5,3.68,3.68,0,0,1-1.11.17H63.67Zm1.16,4.17h.59a3,3,0,0,0,.75-.09,1.59,1.59,0,0,0,.59-.26,1.41,1.41,0,0,0,.4-.5,1.82,1.82,0,0,0,.14-.75,1.54,1.54,0,0,0-.14-.67,1.49,1.49,0,0,0-.39-.47,1.67,1.67,0,0,0-.57-.27,2.61,2.61,0,0,0-.69-.1h-.68Z" fill="#fff"/><path d="M72.8,56.54h3.55V57.6H74v1h2.27v1.06H74v1.07h2.53v1.06H72.8Z" fill="#fff"/><path d="M83.46,57.82a.74.74,0,0,0-.38-.26,1.29,1.29,0,0,0-.45-.09,1.15,1.15,0,0,0-.26,0,.92.92,0,0,0-.25.09.67.67,0,0,0-.2.17.41.41,0,0,0-.07.25.4.4,0,0,0,.18.36,1.51,1.51,0,0,0,.44.22l.58.17a2.74,2.74,0,0,1,.58.25,1.45,1.45,0,0,1,.45.44,1.32,1.32,0,0,1,.18.73,1.77,1.77,0,0,1-.16.76,1.56,1.56,0,0,1-.44.54,2,2,0,0,1-.65.32,2.76,2.76,0,0,1-.77.1,2.85,2.85,0,0,1-.94-.15,2.62,2.62,0,0,1-.82-.5l.82-.91a1.27,1.27,0,0,0,1,.5,1.33,1.33,0,0,0,.28,0l.26-.1a.63.63,0,0,0,.19-.17.49.49,0,0,0,.07-.25.43.43,0,0,0-.18-.37,1.8,1.8,0,0,0-.46-.23l-.59-.2a2.83,2.83,0,0,1-.59-.25,1.57,1.57,0,0,1-.46-.43,1.23,1.23,0,0,1-.18-.7,1.58,1.58,0,0,1,.17-.74,1.62,1.62,0,0,1,.44-.53,2,2,0,0,1,.64-.33,2.66,2.66,0,0,1,.75-.1,3,3,0,0,1,.85.12,2.13,2.13,0,0,1,.75.42Z" fill="#fff"/><path d="M88.59,56.54h1.72a5.19,5.19,0,0,1,1.2.14,2.69,2.69,0,0,1,1,.46,2.13,2.13,0,0,1,.67.81,2.68,2.68,0,0,1,.25,1.22,2.49,2.49,0,0,1-.24,1.12,2.45,2.45,0,0,1-.65.81,2.74,2.74,0,0,1-.94.5,3.68,3.68,0,0,1-1.11.17h-1.9Zm1.15,4.17h.6a2.94,2.94,0,0,0,.74-.09,1.52,1.52,0,0,0,.59-.26,1.41,1.41,0,0,0,.4-.5,1.82,1.82,0,0,0,.14-.75,1.54,1.54,0,0,0-.14-.67,1.49,1.49,0,0,0-.39-.47,1.67,1.67,0,0,0-.57-.27,2.61,2.61,0,0,0-.69-.1h-.68Z" fill="#fff"/><path d="M97.71,56.54h3.55V57.6h-2.4v1h2.27v1.06H98.86v1.07h2.53v1.06H97.71Z" fill="#fff"/><path d="M113,57.78l-1,.92-.63-.72,1.71-1.44h1v5.23H113Z" fill="#fff"/><path d="M121,59.9h-.36a1.68,1.68,0,0,1-.68-.13,1.57,1.57,0,0,1-.51-.36,1.6,1.6,0,0,1-.34-.54,2.14,2.14,0,0,1-.11-.67,1.78,1.78,0,0,1,.15-.74,1.66,1.66,0,0,1,.41-.56,1.93,1.93,0,0,1,.62-.37,2.34,2.34,0,0,1,.77-.13,2.38,2.38,0,0,1,.76.13,1.83,1.83,0,0,1,.62.37,1.68,1.68,0,0,1,.42.56,1.78,1.78,0,0,1,.15.74,2,2,0,0,1-.06.51,2.829,2.829,0,0,1-.13.44,3.548,3.548,0,0,1-.2.39l-.24.39-1.15,1.79h-1.35Zm-.9-1.61a.79.79,0,0,0,.24.59.84.84,0,0,0,.61.23.85.85,0,0,0,.61-.23.87.87,0,0,0,0-1.18.85.85,0,0,0-.61-.23.84.84,0,0,0-.61.23.79.79,0,0,0-.23.59Z" fill="#fff"/><path d="M130.42,57.52h-2.08v.8a1.45,1.45,0,0,1,.47-.06,2.15,2.15,0,0,1,.73.12,1.517,1.517,0,0,1,.94.89,1.81,1.81,0,0,1,.14.72,2,2,0,0,1-.16.79,1.78,1.78,0,0,1-.41.59,1.75,1.75,0,0,1-.64.36,2.22,2.22,0,0,1-.79.13,1.92,1.92,0,0,1-1.14-.33,1.74,1.74,0,0,1-.62-1l1.16-.26a.7.7,0,0,0,.23.45.67.67,0,0,0,.48.17.74.74,0,0,0,.57-.22.78.78,0,0,0,.21-.56.77.77,0,0,0-.11-.42.73.73,0,0,0-.28-.27,1.3,1.3,0,0,0-.39-.14,3,3,0,0,0-.43,0,2.62,2.62,0,0,0-.55,0,3.18,3.18,0,0,0-.53.14l.06-2.89h3.16Z" fill="#fff"/><path d="M137.3,57.56h-2.58v-1h3.82v1l-2.09,4.25h-1.29Z" fill="#fff"/><path d="M146.06,60.37h-1.82v-.88h1.82Z" fill="#fff"/><path d="M30.38,35.72c0,4.44-2.67,9.19-10.15,9.19-4.26-.1-6.42-1.3-7.15-1.81L14.94,38a11.89,11.89,0,0,0,5.86,1.56,4,4,0,0,0,2.84-.9A2.24,2.24,0,0,0,24.31,37c0-1.51-1.25-2.33-3.3-3.52-2.48-1.48-5-3.47-5-7,0-5.32,4-8.9,9.94-8.9a12.26,12.26,0,0,1,5.79,1.16L30,24a9.66,9.66,0,0,0-4.51-1c-2.59,0-3.51,1.29-3.51,2.39,0,1.28,1.31,2.09,3,3.12l.63.4C28.81,30.67,30.38,32.92,30.38,35.72Zm21.11-9.91L49.62,36a55.079,55.079,0,0,0-.7,8.54h-5.1c.06-1,.13-2.08.16-3.14v-.27h-.53l-.07.14C41.7,44.5,39.29,44.98,38,44.98c-3.13,0-5.24-2.72-5.24-6.77,0-6.65,3.93-13.36,12.69-13.36a20.66,20.66,0,0,1,6.04.96Zm-6.31,3.81-.25-.05a6.38,6.38,0,0,0-1.2-.13c-3,0-5,4.48-5,7.45,0,1.92.75,3.07,2,3.07.8,0,2.76-.6,3.65-6.12Zm21.29-4.81A6.92,6.92,0,0,0,60.6,28.2l-.07.11H60l.29-3.06H55.41l-.07.5c-.23,1.74-.5,3.72-.91,6L52.27,44.5H57.9l1.41-8.22c.7-4,2.23-6.48,4-6.48,1.05,0,1.59.74,1.59,2.19a12.779,12.779,0,0,1-.19,2.09L62.94,44.5h5.62l2-11.23a28.389,28.389,0,0,0,.28-3.33c-.04-2.34-.79-5.13-4.37-5.13Zm33.29-6.87L96.6,25.78c-.89,2.2-2.38,5.88-3.5,9.42v.18h-.6v-.26c0-2.51-.1-4.95-.22-7.1,0-.8-.08-1.57-.11-2.29l-.28-7.79H84L78.07,44.5h5.11l2-9.47c.42-2.07.88-4.6,1.38-7.28.23-1.27.47-2.58.72-3.88v-.21h.53v.25c.08,3.14.23,6.7.43,10.88l.46,9.15h4.39l3.95-9.28c1.14-2.6,2.53-6,4.37-10.84l.06-.16h.56v.3c-.66,3.86-1.21,7.41-1.74,11.16L98.94,44.5h5.44l3.34-26.56Zm27.45,7.87L125.33,36a56.342,56.342,0,0,0-.7,8.54h-5.1c.06-1,.13-2.08.16-3.14v-.27h-.53l-.07.14c-1.68,3.23-4.09,3.71-5.38,3.71-3.13,0-5.23-2.72-5.23-6.77,0-9.86,6.83-13.36,12.68-13.36a20.79,20.79,0,0,1,6.05.96Zm-6.32,3.81-.25-.05a6.38,6.38,0,0,0-1.2-.13c-3,0-5,4.48-5,7.45,0,1.92.76,3.07,2,3.07.79,0,2.75-.6,3.65-6.12Zm15-.57-.07.14h-.55v-.28c.1-1.19.17-2.44.24-3.66H130.7c-.05.45-.09,1-.15,1.64-.16,1.82-.37,4.32-.73,6.58l-1.9,11h5.66L134.73,38c.56-3.26,1.71-7,5.75-7h.62l1.1-6.14h-.71c-2.17-.05-4.19,1.5-5.55,4.19Zm12.13,7.07c0-4.17,2.84-6.36,5.64-6.36a5.89,5.89,0,0,1,2,.28L157,25.32a10.64,10.64,0,0,0-3.26-.47c-6.74,0-11.64,5-11.64,12,0,4.89,2.95,8.06,7.52,8.06a11.22,11.22,0,0,0,4.73-.87l.07-4.65a8.08,8.08,0,0,1-3,.57c-1.68.04-3.35-1.19-3.35-3.84Zm16.45,8.82c-4.59,0-7.55-3.11-7.55-7.93,0-7.07,4.5-12.2,10.7-12.2,4.51,0,7.55,3.16,7.55,7.86,0,7.23-4.38,12.27-10.66,12.27Zm.83-4.66h0c2.69,0,3.94-4.49,3.94-7.53,0-2.08-.89-3.27-2.46-3.27-2.84,0-4,4.83-4,7.41.08,2.11,1.01,3.39,2.57,3.39ZM188,42.65A6.26,6.26,0,0,0,189.83,38c0-2.75-2.14-4.15-4.13-5.24-1.5-.74-2.2-1.38-2.2-2,0-.93.81-1.46,2.21-1.46a8.86,8.86,0,0,1,3.6.74l1.27-4.3a10.49,10.49,0,0,0-4.62-.91c-4.86,0-8.13,2.76-8.13,6.86,0,2,1.26,3.73,3.84,5.11,1.66.81,2.27,1.43,2.27,2.28,0,.68-.53,1.42-2,1.42a12,12,0,0,1-4.79-1.3l-1.31,4.24a10.47,10.47,0,0,0,5.53,1.49A9.19,9.19,0,0,0,188,42.65Z" fill="#fff"/><path d="M28.94,24.88a8.31,8.31,0,0,0-1.9-.16c-1.77,0-2.79.62-3.13,1.47-.38-.32-.63-.61-.63-.87,0-.81,1.19-1.1,2.22-1.1h0a8.17,8.17,0,0,1,3.44.66ZM31.5,37.76a9.37,9.37,0,0,1-3.41,6,12.66,12.66,0,0,1-7.87,2.47,19.27,19.27,0,0,1-4.08-.48,16.59,16.59,0,0,0,5.62,1c4.42,0,8.6-1.93,10-6.28a10.72,10.72,0,0,1-.23-2.25A1.565,1.565,0,0,1,31.5,37.76Zm.2-11.91,1.88-5.75c-.25-.12-.52-.26-.83-.38l-1.88,5.74c.33.14.61.27.83.39ZM51.41,37.54l1.91-10.37c-.22-.08-.47-.15-.73-.23l-1.71,9.25a53.21,53.21,0,0,0-.67,8.54v1.06h-5.1v.5h5.64a54.291,54.291,0,0,1,.66-8.75ZM41.16,32.73A8.85,8.85,0,0,0,40,36.89c0,.69.14,1.48.51,1.71v-.18c0-2.22,1.13-5.28,3-6.57l.21-1.12C42.47,30.77,41.58,32,41.16,32.73Zm22.29-1.62a.55.55,0,0,0-.16,0c-.68,0-2,1.47-2.72,5.41L59,45.79H53.59l-.09.5h6.15l1.45-8.43c.52-3,1.46-4.9,2.49-5.76v-.11c.01-.71-.14-.88-.14-.88Zm8.63-1.17a27.55,27.55,0,0,1-.3,3.53L69.64,45.79H64.25l-.08.5h6.14l2-11.44a26.291,26.291,0,0,0,.29-3.38,7.11,7.11,0,0,0-.6-3.15,10.36,10.36,0,0,1,.08,1.62Zm37.46-10.72h-.69l-3.33,26.57h-5.27l-.07.5h6l1.07-8.48a17.59,17.59,0,0,1,.47-3.76ZM93.53,28c0,.61.06,1.23.09,1.88l.38-1a10.326,10.326,0,0,0-.08-1.59l-.28-8h-.46l.24,6.46C93.45,26.39,93.49,27.15,93.53,28Zm5.8,4.67c-.39.94-.74,1.78-1.08,2.55L94,45.22H90v.51h4.81l4-9.32L99,34.94Zm-12.44.24c-.16.86-.32,1.67-.47,2.42l-2.2,10.51H79.4l-.12.5h5.64l2-9.68a3.394,3.394,0,0,1,.1-.52L87,34.85c0-.68-.08-1.35-.11-1.99Zm31.35,11.61a6.67,6.67,0,0,1-4.52,1.76,6.491,6.491,0,0,1-.77,0,5,5,0,0,0,2.31.55,5.59,5.59,0,0,0,2.9-.8c0-.24.08-1.48.08-1.56Zm-75.71,0A6.67,6.67,0,0,1,38,46.23a6.491,6.491,0,0,1-.77,0,5,5,0,0,0,2.31.55,5.59,5.59,0,0,0,2.9-.8c.01-.19.09-1.43.09-1.51Zm74.34-11.74a8.85,8.85,0,0,0-1.18,4.16c0,.69.14,1.48.51,1.71v-.18c0-2.22,1.13-5.28,3-6.57l.21-1.12c-1.23-.01-2.12,1.22-2.54,1.95Zm10.25,4.81L129,27.17c-.22-.08-.47-.15-.73-.23l-1.71,9.25a55.622,55.622,0,0,0-.67,8.54v1.06h-5.13v.5h5.64a55.451,55.451,0,0,1,.72-8.75Zm16.53-9.26.39-2.15a6.449,6.449,0,0,0-.76,0l-.67,3.73a11.858,11.858,0,0,1,1.04-1.63Zm-3.17,4c-2.44,0-3.78,1.78-4.48,5.93l-1.27,7.61H129.3l-.08.5h6.18l1.12-6.74c.58-3.4,1.73-6.4,4.85-6.76a1.876,1.876,0,0,1,.17-.54Zm14.61,12.86a12,12,0,0,1-5.46,1.08,10.62,10.62,0,0,1-1.82-.16,8.38,8.38,0,0,0,3.35.67,11.19,11.19,0,0,0,5-1l.07-5.18-.53.2-.05,4.07Zm3.38-17,.39-1.4a7.51,7.51,0,0,0-.83-.24l-1.15,4.05a27.432,27.432,0,0,1,1.59-2.51Zm-3.22,3.46h.83l-.63-.26a4.31,4.31,0,0,0-1.74-.28c-2.86,0-4.36,2.55-4.36,5.07a2.89,2.89,0,0,0,.52,1.85v-.31c-.01-3.32,2.05-6.17,5.38-6.17Zm12.55-.19a1,1,0,0,0-.93-.59c-1.64,0-2.73,3.68-2.73,6.12a2.64,2.64,0,0,0,.52,1.83q0-.15,0-.3c-.01-2.32.91-6.52,3.14-7.16Zm8.89,6.16A16.7,16.7,0,0,0,177,34.2q0-.135,0-.27c-.3-.71-.5-1.26-.5-1.26,0,8-4.91,13.56-11.94,13.56h0a10.32,10.32,0,0,1-1.87-.17,8.54,8.54,0,0,0,3.41.67h0A10.23,10.23,0,0,0,174.9,42ZM191,31.91l1.41-4.78a6.189,6.189,0,0,0-.81-.38l-1.42,4.82a8.542,8.542,0,0,1,.82.34Zm.1,6.1a7.58,7.58,0,0,1-2.18,5.55,10.46,10.46,0,0,1-7.48,2.63h-.12a17.209,17.209,0,0,1-2.9-.34,13.54,13.54,0,0,0,4.44.85c5.1,0,8.75-2.5,8.75-7.15a4.8,4.8,0,0,0-.55-2.28,6,6,0,0,1,.05.73Zm-6.27-7.3a3.86,3.86,0,0,0,1,.67,2.88,2.88,0,0,1,1.44-.31,8.49,8.49,0,0,1,1.57.14,7.47,7.47,0,0,0-3.11-.65,2,2,0,0,0-.89.15Z" fill="#0069a7"/><rect width="202.52" height="4.5" transform="translate(1.17 1.34)" fill="#fff"/><path d="M203.7,62.71V58.65C155.23,58.9,142.49,75,102.46,75,60.65,75,46.15,58.92,1.17,58.65v4.06c30.46.2,47.44,8.29,69.23,13.12h0l1.39.3h.1l1.33.28h.18l1.29.25h.23l1.24.24h.29l1.21.22.35.06,1.17.19.4.07,1.15.17.45.07,1.13.16.49.07,1.1.15.54.07,1.09.13.57.06,1.1.12.6.06,1.07.1.65.06,1.08.09h.67l1.07.08h.71l1.08.06h16.26l1.06-.06h.66l1-.08h.61l1.06-.09.59-.06,1.06-.1.56-.06,1.06-.12.53-.06,1.07-.13.49-.07,1.09-.15.44-.06,1.11-.17.4-.06,1.13-.18.36-.07,1.16-.19.3-.06,1.2-.22h.25l1.23-.24h.18l1.29-.27h.1l1.36-.29h0c21.78-4.79,38.94-13.25,71.88-13.45Z" fill="#fff200"/></svg>